HIERARCHY
ROOT Hips
{
  OFFSET 0 0 0
  CHANNELS 6 Xposition Yposition Zposition Zrotation Xrotation Yrotation
  JOINT Spine
  {
    OFFSET 0 8.08348 0
    CHANNELS 3 Zrotation Xrotation Yrotation
    JOINT Spine1
    {
      OFFSET 0 24.6145 0
      CHANNELS 3 Zrotation Xrotation Yrotation
      JOINT Neck
      {
        OFFSET 0 24.5134 2.22849
        CHANNELS 3 Zrotation Xrotation Yrotation
        JOINT Head
        {
          OFFSET 0 13.8011 -1.97158
          CHANNELS 3 Zrotation Xrotation Yrotation
          End Site
          {
            OFFSET 0 19.7158 0
          }
        }
      }
      JOINT LeftShoulder
      {
        OFFSET 3.94856 23.7669 -0.001842
        CHANNELS 3 Zrotation Xrotation Yrotation
        JOINT LeftArm
        {
          OFFSET 8.44442 0 0
          CHANNELS 3 Zrotation Xrotation Yrotation
          JOINT LeftForeArm
          {
            OFFSET 36.6799 0 0
            CHANNELS 3 Zrotation Xrotation Yrotation
            JOINT LeftHand
            {
              OFFSET 28.1618 0 0
              CHANNELS 3 Zrotation Xrotation Yrotation
              End Site
              {
                OFFSET 14.7869 0 0
              }
            }
          }
        }
      }
      JOINT RightShoulder
      {
        OFFSET -3.93736 23.7669 -0.001842
        CHANNELS 3 Zrotation Xrotation Yrotation
        JOINT RightArm
        {
          OFFSET -8.44442 0 0
          CHANNELS 3 Zrotation Xrotation Yrotation
          JOINT RightForeArm
          {
            OFFSET -36.6799 0 0
            CHANNELS 3 Zrotation Xrotation Yrotation
            JOINT RightHand
            {
              OFFSET -28.1618 0 0
              CHANNELS 3 Zrotation Xrotation Yrotation
              End Site
              {
                OFFSET -14.7869 0 0
              }
            }
          }
        }
      }
    }
  }
  JOINT LeftUpLeg
  {
    OFFSET 9.8579 0 0
    CHANNELS 3 Zrotation Xrotation Yrotation
    JOINT LeftLeg
    {
      OFFSET 0 -43.507 0
      CHANNELS 3 Zrotation Xrotation Yrotation
      JOINT LeftFoot
      {
        OFFSET 0 -37.4368 0
        CHANNELS 3 Zrotation Xrotation Yrotation
        JOINT LeftToeBase
        {
          OFFSET 0 -6.40764 14.7869
          CHANNELS 3 Zrotation Xrotation Yrotation
          End Site
          {
            OFFSET 0 0 3.94316
          }
        }
      }
    }
  }
  JOINT RightUpLeg
  {
    OFFSET -9.8579 0 0
    CHANNELS 3 Zrotation Xrotation Yrotation
    JOINT RightLeg
    {
      OFFSET 0 -43.507 0
      CHANNELS 3 Zrotation Xrotation Yrotation
      JOINT RightFoot
      {
        OFFSET 0 -37.4368 0
        CHANNELS 3 Zrotation Xrotation Yrotation
        JOINT RightToeBase
        {
          OFFSET 0 -6.40764 14.7869
          CHANNELS 3 Zrotation Xrotation Yrotation
          End Site
          {
            OFFSET 0 0 3.94316
          }
        }
      }
    }
  }
}
MOTION
Frames:	10
Frame Time:	0.0166667
26.6131 96.6658 -324.235 1.54212 -1.25753 2.38111 -0.276591 1.29658 -1.80511 1.16301 -0.338898 -0.61004 0.104864 17.6988 0.537315 1.39516 -9.81146 0.875592 16.7641 -1.36229 0.343273 -21.093 -3.27119 1.7771 1.89732 -4.10558 -0.870146 3.12092 -4.12639 -1.29428 -13.6417 -1.12568 -0.001593 15.181 -4.34913 -10.9861 -0.806013 0.019848 3.30714 0.044072 0.043599 0.28943 0.271156 7.65923 11.5228 -4.03921 1.09345 -5.02479 2.22299 -8.69055 14.7058 -9.93923e-017 -5.96354e-016 -3.18055e-015 -3.39382 6.79911 2.9461 4.75106 3.15634 5.81666 -2.98721 -8.89145 -27.1455 1.11816e-016 -4.96962e-017 -3.18055e-015 
26.6131 96.6658 -324.226 1.55143 -1.25749 2.4247 -0.277363 1.26243 -1.81892 1.17178 -0.259441 -0.610036 0.080913 17.6869 0.5822 1.36216 -9.89162 0.915479 16.6419 -1.34686 0.253208 -21.1947 -2.99936 1.82013 1.86656 -4.24157 -1.05676 3.3493 -4.25296 -0.978793 -13.514 -1.09603 0.04064 15.1971 -4.4141 -11.0229 -0.883065 -0.121895 3.30717 0.113758 -0.096489 0.3484 0.249865 7.7038 10.9845 -4.0362 0.953761 -4.51325 2.22523 -8.64248 14.6928 2.20695e-032 -1.98785e-016 6.36111e-015 -3.41435 6.82518 2.98102 4.7772 3.12084 5.76115 -3.01369 -8.8838 -27.1466 4.96962e-017 4.96962e-017 3.18055e-015 
26.6176 96.6658 -324.22 1.56589 -1.25745 2.46879 -0.264471 1.23901 -1.83163 1.12808 -0.157445 -0.610032 0.120091 17.5923 0.612924 1.28838 -9.89901 0.93125 16.5524 -1.9726 -0.327455 -21.3411 -2.43466 2.65713 1.90328 -4.49975 -1.29597 3.27157 -4.51321 -1.22661 -13.3828 -1.08796 0.063409 15.2605 -4.53659 -11.0625 -0.86112 -0.272246 3.37428 0.33685 -0.246265 0.211104 0.21748 7.75529 10.3308 -4.02135 0.788457 -3.83345 2.19282 -8.57913 14.6153 9.93923e-017 1.98785e-016 -3.18055e-015 -3.44352 6.84868 3.00549 4.807 3.10288 5.77154 -3.01415 -8.91619 -27.2137 -1.61513e-016 4.96962e-017 3.18055e-015 
26.6257 96.6611 -324.221 1.5913 -1.2574 2.52221 -0.253862 1.22473 -1.81901 1.04179 -0.079267 -0.606513 0.24914 17.5553 0.638106 1.18824 -9.93965 0.936662 16.2581 -1.81469 -0.387709 -21.3167 -2.55634 2.48801 1.91803 -4.42573 -1.35599 2.90465 -4.4304 -1.0805 -13.1586 -1.05002 0.100818 15.3933 -4.48242 -11.1307 -0.894128 -0.393558 3.41439 0.419049 -0.366392 0.172711 0.157563 7.7295 10.4111 -4.01596 0.88387 -3.95943 2.27748 -8.6832 14.7128 0 9.93923e-016 -0 -3.47884 6.86966 2.99743 4.8241 3.09279 5.8246 -3.03909 -8.93838 -27.289 1.2424e-017 -4.96962e-017 -3.18055e-015 
26.6355 96.6548 -324.225 1.6127 -1.25734 2.58549 -0.21244 1.20878 -1.83791 0.911181 0.020245 -0.613574 0.329823 17.4919 0.681815 1.18577 -9.97681 0.982701 15.9496 -1.61093 -0.436558 -21.361 -2.5452 2.3142 1.93465 -4.3048 -1.40486 2.97284 -4.29607 -0.576339 -13.0796 -1.13574 0.109362 15.6803 -4.64539 -11.1535 -0.815917 -0.306188 3.41608 0.419119 -0.281149 0.179593 0.137395 7.70468 10.3465 -4.00495 0.916283 -3.92145 2.28533 -8.69798 14.6862 -2.98177e-016 3.97569e-016 -3.18055e-015 -3.50349 6.88952 2.96343 4.83168 3.07487 5.76961 -3.02718 -8.96406 -27.2592 -2.60905e-016 4.96962e-017 -3.18055e-015 
26.6437 96.6504 -324.231 1.63177 -1.25726 2.65655 -0.190637 1.1926 -1.85738 0.821129 0.114615 -0.620569 0.391466 17.5114 0.709085 1.19033 -10.1187 1.01424 15.554 -1.32855 -0.480814 -21.4416 -2.47967 2.05751 2.02817 -4.56162 -1.40818 2.72726 -4.55577 -0.801071 -12.829 -1.06664 0.147544 15.8915 -4.78554 -11.1684 -0.794307 -0.301083 3.47968 0.398285 -0.276675 0.1368 0.107972 7.73929 9.77369 -4.00195 0.766621 -3.30523 2.27418 -8.62365 14.5804 -9.93923e-017 1.98785e-016 -0 -3.51676 6.90777 2.93871 4.82788 3.0559 5.71298 -3.01654 -8.99699 -27.2609 -2.75869e-033 -4.96962e-017 -3.18055e-015 
26.6508 96.643 -324.243 1.64405 -1.25938 2.72934 -0.182143 1.17887 -1.87612 0.779319 0.2231 -0.627463 0.393409 17.5737 0.712879 1.22807 -10.3467 1.02953 15.1383 -1.0711 -0.483751 -21.6902 -2.27933 1.77904 2.20744 -4.70959 -1.53627 2.75323 -4.69675 -0.695834 -12.5021 -0.952109 0.206786 16.0525 -5.00812 -11.1814 -0.763821 -0.361258 3.54647 0.355812 -0.337351 0.078772 0.115762 7.6335 10.3156 -3.98816 1.01084 -3.94375 2.29639 -8.74438 14.6072 1.98785e-016 -1.98785e-016 -3.18055e-015 -3.533 6.92069 2.92277 4.84246 3.04638 5.71044 -3.04687 -9.00771 -27.2924 1.49089e-016 -4.96962e-017 -3.18055e-015 
26.6619 96.6381 -324.262 1.65499 -1.23937 2.7929 -0.187877 1.14837 -1.87598 0.795648 0.333518 -0.628238 0.303218 17.7186 0.77683 1.29021 -10.7614 1.11417 14.77 -0.814139 -0.458897 -22.2284 -2.11968 1.43013 2.45499 -5.01747 -1.7653 3.2614 -4.99259 -0.451817 -12.1102 -0.784322 0.305306 16.226 -5.18795 -11.2401 -0.811112 -0.539906 3.66268 -0.070206 -0.514048 0.069988 0.191033 7.35416 11.8859 -3.95061 1.64501 -5.83922 2.26784 -8.98164 14.7595 1.98785e-016 1.98785e-016 -3.18055e-015 -3.54595 6.89389 2.87817 4.84378 3.05425 5.65818 -3.03687 -9.02352 -27.2595 -9.93923e-017 -4.96962e-017 -0 
26.6755 96.6337 -324.288 1.66272 -1.20592 2.84821 -0.196206 1.10021 -1.85066 0.843216 0.451212 -0.620774 0.249589 17.9141 0.809376 1.22471 -11.2064 1.13688 14.1944 -0.425711 -0.479555 -22.7081 -1.69406 1.10808 2.53803 -5.48787 -2.32159 4.69869 -5.42365 0.318425 -11.6857 -0.56598 0.421146 16.4476 -5.41211 -11.325 -0.884803 -0.810239 3.82751 -0.245211 -0.780634 -0.068953 0.180173 7.24045 11.9713 -3.92283 1.77937 -6.03626 2.3059 -9.05281 14.8183 -1.98785e-016 5.96354e-016 -6.36111e-015 -3.56286 6.902 2.80912 4.84423 2.95001 5.62612 -3.01358 -8.99141 -27.2117 1.98785e-016 0 3.18055e-015 
26.6975 96.6292 -324.313 1.67096 -1.16807 2.90101 -0.178776 1.03345 -1.80484 0.80452 0.599654 -0.606369 0.374058 18.0635 0.830296 1.0303 -11.5589 1.11797 13.6741 -0.023744 -0.622225 -23.256 -1.38351 0.950181 2.38023 -5.92446 -3.099 6.00407 -5.83498 0.487027 -11.1405 -0.312901 0.516102 16.6853 -5.67619 -11.3704 -0.838306 -1.20403 3.95958 -0.794858 -1.17426 -0.119472 -0.000614085 7.66919 7.52416 -3.93295 0.374483 -1.15434 2.26585 -8.51555 14.45 -1.98785e-016 -3.97569e-016 -0 -3.59789 6.85122 2.73856 4.87344 2.9722 5.70464 -3.01284 -9.02644 -27.2659 -4.96962e-017 9.93923e-017 -0 
